<mxfile host="app.diagrams.net" modified="2020-06-17T10:27:02.723Z" agent="5.0 (X11)" etag="xqpntA2QL9xOf0fuNK6y" version="13.2.4" type="github">
  <diagram id="Dsz-gqt5UsPoLiR_0gt5" name="Page-1">
    <mxGraphModel dx="447" dy="784" grid="1" gridSize="10" guides="1" tooltips="1" connect="1" arrows="1" fold="1" page="1" pageScale="1" pageWidth="827" pageHeight="1169" math="0" shadow="0">
      <root>
        <mxCell id="0" />
        <mxCell id="1" parent="0" />
        <mxCell id="5pwWrits99L5pKd2EafA-1" value="" style="whiteSpace=wrap;html=1;aspect=fixed;" vertex="1" parent="1">
          <mxGeometry x="190" y="360" width="80" height="80" as="geometry" />
        </mxCell>
      </root>
    </mxGraphModel>
  </diagram>
</mxfile>
